<svg xmlns="http://www.w3.org/2000/svg" xmlns:xlink="http://www.w3.org/1999/xlink" width="407" height="61" viewBox="0 0 407 61">
    <defs>
        <path id="u3yafe0z6a" d="M0 0.076L60.924 0.076 60.924 61 0 61z"/>
        <path id="dpivmb4vfc" d="M0.162 0.234L4.431 0.234 4.431 4.446 0.162 4.446z"/>
    </defs>
    <g fill="none" fill-rule="evenodd" opacity=".803">
        <g>
            <g>
                <g>
                    <g transform="translate(-80 -2617) translate(-1 2569) translate(81 48)">
                        <mask id="oewaqljmmb" fill="#fff">
                            <use xlink:href="#u3yafe0z6a"/>
                        </mask>
                        <path fill="#FEFEFE" d="M1.32 30.578C1.31 22.793 4.33 15.471 9.826 9.959c5.497-5.512 12.812-8.553 20.597-8.563 16.068-.02 29.158 13.033 29.181 29.098.01 7.788-3.01 15.113-8.509 20.625-5.495 5.51-12.809 8.551-20.592 8.561-16.07.021-29.161-13.035-29.183-29.102M30.42.076c-8.136.01-15.782 3.19-21.529 8.951C3.146 14.787-.012 22.443 0 30.58.022 47.375 13.707 61.022 30.504 61c8.137-.01 15.781-3.19 21.526-8.95 5.747-5.76 8.905-13.417 8.894-21.558C60.9 13.699 47.217.055 30.421.076" mask="url(#oewaqljmmb)"/>
                    </g>
                    <path fill="#FEFEFE" d="M16.727 30.578c-.008-6.978 5.339-12.724 12.216-13.481L28.924 3C14.461 3.798 2.98 15.584 3 30.034 3.02 44.487 14.533 56.244 29 57l-.018-12.975c-6.882-.74-12.245-6.47-12.255-13.447M32 3l.02 14.111c6.593.78 11.72 6.488 11.729 13.432.009 6.944-5.103 12.664-11.693 13.464L32.074 57C45.988 56.15 57.02 44.385 57 29.964 56.98 15.544 45.918 3.809 32 3" transform="translate(-80 -2617) translate(-1 2569) translate(81 48)"/>
                    <path fill="#FEFEFE" d="M34 23.992c.003 1.661-1.34 3.005-2.996 3.008-1.659.002-3-1.34-3.004-2.998-.003-1.658 1.337-3 2.996-3.002 1.656-.004 3.002 1.336 3.004 2.992M37.437 28l-12.875.02c-.863 0-1.564.695-1.562 1.55 0 .857.701 1.55 1.564 1.547l2.228-.006c.16.013.449.063.595.202.18.182.195.504.196.622l-.625 6.37c-.083.849.547 1.606 1.404 1.688.86.08 1.623-.541 1.709-1.391l.334-3.44s.03-.555.603-.557c.46 0 .57.374.596.526l.35 3.467c.09.851.857 1.47 1.71 1.386.86-.083 1.488-.841 1.402-1.69l-.64-6.368c-.004-.126.017-.44.194-.622.141-.14.433-.19.592-.203l2.229-.005c.863 0 1.56-.694 1.559-1.55 0-.854-.701-1.546-1.563-1.546M187.944 50.188c.04 0 .068-.037.082-.074l1.174-6.301-.85-.037c.04-.26.094-.517.148-.776.499 0 1.16.012 1.701.012.58 0 1.214-.012 1.713-.012-.04.259-.094.517-.148.776l-.986.037c-.04 0-.054.024-.054.048l-.472 2.548c0 .025.014.038.067.038l3.685.012.486-2.646-1.012-.026c.053-.27.094-.528.149-.775h1.821c.513 0 1.107-.012 1.552-.012-.04.259-.08.517-.148.776l-.782.037c-.041 0-.055.024-.055.048l-1.228 6.327.877.038c-.04.257-.08.516-.149.774-.458 0-1.092-.012-1.619-.012-.607 0-1.268.012-1.808.012.04-.258.095-.517.148-.774l.999-.038c.04 0 .068-.024.08-.074l.514-2.794c0-.037-.014-.061-.054-.061l-3.698.024-.567 2.905 1.066.038c-.04.257-.094.516-.148.774-.5 0-1.174-.012-1.768-.012-.526 0-1.16.012-1.66.012.053-.258.094-.517.148-.774l.796-.038zM200.026 46.803c-.296 0-.552.161-.782.456-.218.267-.423.656-.59 1.339.59.014 1.167-.067 1.576-.28.258-.135.437-.323.437-.67 0-.401-.205-.845-.628-.845h-.013zM197 50.246c0-.898.41-2.264 1.295-3.215.73-.776 1.435-1.031 2.115-1.031 1.052 0 1.564.818 1.59 1.526-.076.496-.359 1.086-.718 1.314-.68.362-1.576.508-2.744.508-.076.242-.115.59-.115.778 0 .562.308.91.833.91.488 0 1.295-.228 2.04-.616.089.228.166.47.217.71-.77.469-1.77.87-2.834.87-.794 0-1.679-.615-1.679-1.74v-.014zM203.451 43.09c-.012-.266-.024-.507-.024-.748 1.243-.126 2.012-.342 2.146-.342.085 0 .342.216.427.38-.402 1.762-1.403 6.502-1.658 7.682-.013.051 0 .09.048.09.158 0 .573-.064.988-.166.05.253.073.494.086.748-.635.177-1.33.266-1.988.266-.061 0-.355-.241-.476-.443.28-1.293 1.232-5.844 1.573-7.505l-1.122.038zM211.657 47.719c0-.29-.111-.543-.357-.543-.653 0-1.91 1.533-2.07 2.22-.062.252-.173.886-.221 1.216.258.305.615.476.936.476.555 0 .974-.516 1.22-1.07.296-.688.492-1.652.492-2.287v-.012zm-2.192.144c.984-1.307 1.773-1.85 2.463-1.863.32.04.764.41.961.86.062.131.111.33.111.501 0 .74-.197 1.758-.58 2.59-.319.807-1.083 1.995-2.29 1.995-.48 0-.875-.132-1.27-.435-.16.885-.455 2.563-.628 3.462-.394.027-.8.027-1.232.027.42-2.419.974-5.577 1.355-7.89l-.96.014v-.794c1.244-.171 1.675-.316 1.761-.316.099 0 .357.21.457.383-.062.356-.174.911-.272 1.44l.124.026zM216.212 43c.56 0 .788.416.788.734 0 .477-.42.832-.852.832-.508 0-.838-.38-.838-.771 0-.403.369-.795.89-.795h.012zm-2.2 3.572c-.012-.245-.012-.49-.012-.722.992-.122 1.92-.318 2.073-.318.088 0 .368.245.444.392-.267 1.125-.864 3.645-1.004 4.182-.013.05 0 .086.05.086.154 0 .496-.06.89-.17.038.244.077.476.102.709-.546.158-1.182.269-1.92.269-.09 0-.432-.269-.508-.452.28-1.212.661-2.813.929-4l-1.044.024zM218.054 47.192c-.014-.282-.014-.535-.014-.804.928-.146 1.841-.388 1.96-.388.08 0 .37.202.464.375-.066.322-.173.803-.292 1.3l.12.04c1.02-1.233 2.053-1.701 2.623-1.715.357.054.74.321.953.737.066.134.093.32.093.455 0 .562-.385 2.075-.966 3.817-.014.054 0 .095.052.095.145 0 .503-.068.873-.162.04.241.067.509.08.764-.543.174-1.218.294-2.027.294-.091 0-.37-.228-.463-.468.213-.696.596-2.01.742-2.558.08-.336.264-1.018.264-1.34 0-.214-.105-.388-.33-.388-.742 0-2.04 1.406-2.251 2.223-.133.496-.464 1.874-.583 2.398-.45.013-.9.013-1.352.013.278-1.22.782-3.47 1.06-4.769l-1.006.08zM227.62 49.004c0 .601.284.927.762.927.658 0 1.213-1.005 1.213-2.193 0-.315-.026-.537-.13-.72-.116-.248-.335-.339-.58-.339-.736 0-1.265 1.032-1.265 2.312v.013zm2.09 4.193c0-.431-.322-.51-1.032-.601-.349-.04-.967-.105-1.213-.144-.696.445-1.084.718-1.084 1.124 0 .51.697.705 1.368.705 1.071 0 1.962-.367 1.962-1.072v-.012zm-3.471-4.44c0-1.255.968-2.757 2.787-2.757.414 0 .723.052.904.104.051.014.129.014.207.014.218 0 1.497-.014 1.857-.014.014.26 0 .536-.012.824-.4.012-.839.038-1.2.051l-.014.065c.117.157.207.51.207.889 0 .562-.193 1.136-.503 1.607-.322.47-1.135 1.188-2.568 1.058-.31.209-.555.378-.555.562 0 .273.67.3 1.69.39.75.067 1.136.132 1.459.328.284.169.58.562.58 1.031 0 .954-1.11 2.091-3.574 2.091-1.548 0-2.504-.445-2.504-1.308 0-.234.052-.534.284-.665.452-.275.697-.405 1.354-.783v-.079c-.438-.183-.618-.444-.618-.901 0-.158.077-.235 1.084-.863v-.078c-.466-.274-.865-.77-.865-1.554v-.013zM240.135 43c.346 0 .706.104.865.181-.013.297-.398.97-.664 1.112-.135-.064-.64-.284-1.025-.284-.213 0-.505.103-.731.361-.307.375-.413.93-.626 1.965.626-.013 1.277-.013 1.835-.026-.04.271-.12.608-.212.866h-1.797c-.425 2.094-.918 4.394-1.436 6.798-.44.027-.878.027-1.344.027.492-2.417.971-4.68 1.397-6.812h-1.037c.052-.26.118-.543.172-.802.333-.012.679-.038.984-.05.04 0 .08-.04.094-.091.24-1.228.44-1.758 1.157-2.353.799-.685 1.57-.892 2.355-.892h.013zM243.31 47.023c-.592 0-1.09.772-1.359 1.4-.31.695-.497 1.482-.497 2.005 0 .315.16.511.363.511.538 0 1.842-1.27 2.045-1.86.093-.236.309-1.1.402-1.546-.2-.327-.564-.51-.94-.51h-.015zm.349 3.378c-1.17 1.232-2.003 1.585-2.474 1.599-.31-.053-.835-.367-1.05-.772-.094-.172-.135-.368-.135-.59 0-.432.149-1.192.39-1.86.39-1.035 1.386-2.686 2.745-2.686.538 0 .982.21 1.371.59h.081l.31-.682c.377.092.753.197 1.103.315-.35 1.218-.915 3.406-1.184 4.65-.014.052.027.078.067.078.095 0 .43-.065.834-.183.054.25.094.499.122.76-.592.197-1.333.327-1.884.327-.053 0-.336-.183-.417-.353.027-.21.135-.681.243-1.166l-.122-.027zM247.025 47.168c-.025-.269-.025-.537-.025-.793 1.005-.16 1.776-.375 1.893-.375.105 0 .314.174.432.363-.053.349-.144.765-.248 1.261l.13.027c.98-1.248 1.895-1.637 2.378-1.651.313.04.68.296.862.631.065.107.092.255.092.375 0 .108-.04.363-.079.631l.091.027c.966-1.274 1.842-1.624 2.325-1.637.288.04.732.322.94.752.053.12.093.268.093.415 0 .55-.366 2.081-.888 3.813-.014.053 0 .094.051.094.144 0 .457-.067.837-.175.039.242.077.497.091.751-.574.201-1.176.323-1.973.323-.065 0-.326-.255-.404-.47.208-.711.51-1.892.64-2.443.079-.335.274-1.14.274-1.503 0-.188-.105-.376-.353-.376-.653 0-1.855 1.489-2.037 2.295-.184.725-.38 1.57-.562 2.362-.418.013-.85.013-1.28.013.169-.71.536-2.294.666-2.871.078-.377.248-1.208.248-1.477 0-.174-.105-.349-.313-.349-.693 0-1.882 1.53-2.078 2.335-.13.537-.418 1.8-.535 2.35-.431.012-.863.012-1.293.012.261-1.167.744-3.408 1.032-4.79l-1.007.08zM259.212 43c.56 0 .788.416.788.734 0 .477-.418.832-.85.832-.509 0-.84-.38-.84-.771 0-.403.369-.795.89-.795h.012zm-2.199 3.572c-.013-.245-.013-.49-.013-.722.992-.122 1.92-.318 2.073-.318.088 0 .369.245.444.392-.267 1.125-.864 3.645-1.003 4.182-.014.05 0 .086.05.086.153 0 .495-.06.89-.17.038.244.076.476.102.709-.547.158-1.182.269-1.92.269-.09 0-.432-.269-.509-.452.28-1.212.661-2.813.929-4l-1.043.024zM261.451 43.09c-.012-.266-.024-.507-.024-.748 1.244-.126 2.012-.342 2.147-.342.084 0 .34.216.426.38-.402 1.762-1.403 6.502-1.658 7.682-.013.051 0 .09.048.09.16 0 .573-.064.988-.166.05.253.073.494.086.748-.635.177-1.33.266-1.99.266-.06 0-.353-.241-.474-.443.28-1.293 1.232-5.844 1.573-7.505l-1.122.038zM267.212 43c.56 0 .788.416.788.734 0 .477-.418.832-.85.832-.509 0-.84-.38-.84-.771 0-.403.369-.795.89-.795h.012zm-2.199 3.572c-.013-.245-.013-.49-.013-.722.992-.122 1.92-.318 2.073-.318.088 0 .369.245.444.392-.267 1.125-.864 3.645-1.003 4.182-.014.05 0 .086.05.086.153 0 .495-.06.89-.17.038.244.076.476.102.709-.547.158-1.182.269-1.92.269-.09 0-.432-.269-.509-.452.28-1.212.661-2.813.929-4l-1.043.024zM272.026 46.803c-.296 0-.552.161-.783.456-.218.267-.423.656-.59 1.339.59.014 1.168-.067 1.577-.28.258-.135.437-.323.437-.67 0-.401-.206-.845-.629-.845h-.012zM269 50.246c0-.898.41-2.264 1.294-3.215.73-.776 1.436-1.031 2.116-1.031 1.051 0 1.564.818 1.59 1.526-.077.496-.359 1.086-.718 1.314-.68.362-1.577.508-2.744.508-.077.242-.116.59-.116.778 0 .562.308.91.834.91.488 0 1.295-.228 2.04-.616.088.228.165.47.216.71-.768.469-1.768.87-2.833.87-.795 0-1.679-.615-1.679-1.74v-.014zM278.943 47.138c-.015-.067-.029-.12-.086-.16-.142-.081-.4-.161-.685-.161-.23 0-.529.027-.743.147-.23.12-.429.335-.429.657 0 .44.429.589 1.043.817.928.375 1.528.776 1.528 1.567 0 .723-.4 1.273-1.058 1.633-.399.216-.998.362-1.898.362-.657 0-1.3-.107-1.615-.24.029-.603.071-1.206.1-1.769.271-.026.557-.04.828-.04l.114.898c0 .066.03.12.086.16.187.107.5.174.829.174.3 0 .614-.04.814-.16.214-.134.358-.322.358-.657 0-.456-.372-.643-1-.884-.873-.335-1.586-.697-1.586-1.593 0-.791.686-1.354 1.214-1.581.515-.228 1.1-.308 1.744-.308.585 0 1.2.12 1.499.28-.043.537-.1 1.112-.143 1.622-.228.026-.557.04-.828.053l-.086-.817zM282.038 50c.718 0 .962.527.962.96 0 .606-.458 1.04-1.038 1.04-.565 0-.962-.404-.962-.96 0-.513.397-1.04 1.022-1.04h.016zM289.867 47.135c-.013.099.258.112.542.112.466 0 .905-.087 1.24-.284.53-.295.904-.91.904-1.686 0-.8-.426-1.514-1.55-1.514-.258 0-.438.013-.516.037l-.62 3.335zm-2 3.066c.038 0 .063-.026.063-.062l1.137-6.315-.787-.024c.05-.259.102-.53.154-.775.684-.013 1.498-.025 2.311-.025.84 0 1.33.025 1.95.259.93.344 1.305 1.144 1.305 1.932 0 1.243-.891 2.178-1.807 2.548-.647.258-1.254.32-1.848.32-.245 0-.53-.013-.645-.024L289.3 50.2l1.304.025c-.038.245-.09.528-.154.774H287c.053-.246.104-.517.155-.763l.711-.036zM295.027 47.178c-.014-.273-.027-.534-.027-.809 1.064-.15 1.873-.369 1.967-.369.081 0 .378.246.459.398-.067.328-.19.89-.35 1.602l.12.04c.85-1.3 1.564-2.04 2.063-2.04.323 0 .606.124.741.206 0 .493-.35 1.355-.526 1.48-.108-.042-.484-.152-.66-.152-.54 0-1.711 1.37-1.982 2.411-.107.452-.336 1.494-.47 2.042-.446.013-.903.013-1.362.013.242-1.123.754-3.48 1.037-4.905l-1.01.083zM303.108 51.253c.318 0 .637-.188.858-.535.342-.509.674-1.792.674-2.833 0-.36-.05-.616-.148-.803-.097-.186-.27-.334-.539-.334-.318 0-.613.161-.882.55-.318.439-.699 1.602-.699 2.725 0 .374.037.654.147.881.11.2.32.349.576.349h.013zM306 48.125c0 1.243-.527 2.418-1.312 3.194-.465.44-1.03.681-1.85.681-.785 0-1.226-.361-1.471-.68-.171-.228-.367-.723-.367-1.257 0-1.376.527-2.553 1.25-3.26.575-.562 1.189-.803 1.924-.803.686 0 1.103.268 1.385.642.209.254.441.775.441 1.47v.013zM308.546 49.614c0 .29.186.441.488.441.384 0 .85-.087 1.315-.201.023.24.023.504.023.743-.721.252-1.5.403-2.046.403-.315 0-.826-.315-1.001-.806-.023-.1-.035-.201-.035-.277 0-.34.268-1.687.327-1.99.08-.39.255-1.246.313-1.549H307c.047-.251.092-.527.151-.78.28-.012.605-.037.873-.05.035-.013.08-.038.093-.1.092-.365.197-.793.279-1.147.441-.2.976-.301 1.162-.301.024 0 .035.025.035.05-.07.34-.21 1.057-.302 1.485.57 0 1.162 0 1.709-.012-.035.277-.092.604-.162.87-.477 0-1.13-.015-1.71-.015-.058.303-.186.907-.267 1.324-.105.54-.315 1.573-.315 1.9v.012zM315.026 46.803c-.296 0-.552.161-.783.456-.218.267-.423.656-.59 1.339.59.014 1.168-.067 1.577-.28.258-.135.437-.323.437-.67 0-.401-.206-.845-.629-.845h-.012zM312 50.246c0-.898.41-2.264 1.294-3.215.73-.776 1.436-1.031 2.116-1.031 1.051 0 1.564.818 1.59 1.526-.077.496-.359 1.086-.718 1.314-.68.362-1.577.508-2.744.508-.077.242-.116.59-.116.778 0 .562.308.91.834.91.488 0 1.295-.228 2.04-.616.088.228.165.47.216.71-.768.469-1.768.87-2.833.87-.795 0-1.679-.615-1.679-1.74v-.014zM318 50.086c0-.844.386-2.158 1.336-3.082.786-.763 1.57-1.004 2.534-1.004.565 0 1.006.173 1.13.282-.027.348-.468 1.005-.689 1.111-.124-.067-.716-.402-1.101-.402-.386 0-.702.215-.909.483-.414.548-.758 1.58-.758 2.358 0 .843.386 1.204.991 1.204.415 0 1.13-.2 1.653-.388.083.228.152.468.207.723-.592.268-1.597.629-2.396.629-1.033 0-1.998-.656-1.998-1.9v-.014zM325.546 49.614c0 .29.186.441.488.441.384 0 .85-.087 1.315-.201.023.24.023.504.023.743-.721.252-1.5.403-2.046.403-.315 0-.826-.315-1-.806-.024-.1-.036-.201-.036-.277 0-.34.268-1.687.327-1.99.08-.39.255-1.246.313-1.549H324c.047-.251.092-.527.151-.78.28-.012.605-.037.873-.05.034-.013.08-.038.093-.1.092-.365.197-.793.279-1.147.441-.2.976-.301 1.162-.301.024 0 .035.025.035.05-.07.34-.21 1.057-.302 1.485.57 0 1.162 0 1.709-.012-.035.277-.092.604-.162.87-.477 0-1.13-.015-1.71-.015-.058.303-.186.907-.267 1.324-.105.54-.315 1.573-.315 1.9v.012zM331.212 43c.56 0 .788.416.788.734 0 .477-.418.832-.85.832-.509 0-.84-.38-.84-.771 0-.403.369-.795.89-.795h.012zm-2.199 3.572c-.013-.245-.013-.49-.013-.722.992-.122 1.92-.318 2.073-.318.088 0 .369.245.444.392-.267 1.125-.864 3.645-1.003 4.182-.014.05 0 .086.05.086.153 0 .495-.06.89-.17.038.244.076.476.102.709-.547.158-1.182.269-1.92.269-.09 0-.432-.269-.509-.452.28-1.212.661-2.813.929-4l-1.043.024zM333.054 47.192c-.014-.282-.014-.535-.014-.804.928-.146 1.841-.388 1.96-.388.08 0 .37.202.464.375-.066.322-.173.803-.292 1.3l.12.04c1.02-1.233 2.053-1.701 2.623-1.715.357.054.74.321.953.737.066.134.093.32.093.455 0 .562-.385 2.075-.966 3.817-.014.054 0 .095.052.095.145 0 .503-.068.873-.162.04.241.067.509.08.764-.543.174-1.218.294-2.027.294-.091 0-.37-.228-.463-.468.213-.696.596-2.01.742-2.558.08-.336.264-1.018.264-1.34 0-.214-.105-.388-.33-.388-.742 0-2.04 1.406-2.251 2.223-.133.496-.464 1.874-.583 2.398-.45.013-.9.013-1.352.013.278-1.22.782-3.47 1.06-4.769l-1.006.08zM342.62 49.004c0 .601.284.927.762.927.658 0 1.213-1.005 1.213-2.193 0-.315-.026-.537-.13-.72-.116-.248-.335-.339-.58-.339-.736 0-1.265 1.032-1.265 2.312v.013zm2.09 4.193c0-.431-.322-.51-1.032-.601-.349-.04-.967-.105-1.213-.144-.696.445-1.084.718-1.084 1.124 0 .51.697.705 1.368.705 1.071 0 1.962-.367 1.962-1.072v-.012zm-3.471-4.44c0-1.255.968-2.757 2.787-2.757.414 0 .723.052.904.104.051.014.129.014.207.014.218 0 1.497-.014 1.857-.014.014.26 0 .536-.012.824-.4.012-.839.038-1.2.051l-.014.065c.117.157.207.51.207.889 0 .562-.193 1.136-.503 1.607-.322.47-1.135 1.188-2.568 1.058-.31.209-.555.378-.555.562 0 .273.67.3 1.69.39.75.067 1.136.132 1.459.328.284.169.58.562.58 1.031 0 .954-1.11 2.091-3.574 2.091-1.548 0-2.504-.445-2.504-1.308 0-.234.052-.534.284-.665.452-.275.697-.405 1.354-.783v-.079c-.438-.183-.618-.444-.618-.901 0-.158.077-.235 1.084-.863v-.078c-.466-.274-.865-.77-.865-1.554v-.013zM350 50.086c0-.844.386-2.158 1.336-3.082.786-.763 1.57-1.004 2.534-1.004.565 0 1.006.173 1.13.282-.027.348-.468 1.005-.689 1.111-.124-.067-.716-.402-1.101-.402-.386 0-.702.215-.909.483-.414.548-.758 1.58-.758 2.358 0 .843.386 1.204.991 1.204.415 0 1.13-.2 1.653-.388.083.228.152.468.207.723-.592.268-1.597.629-2.396.629-1.033 0-1.998-.656-1.998-1.9v-.014zM355.73 43.128c-.014-.253-.014-.507-.014-.748 1.103-.151 2.138-.38 2.244-.38.08 0 .358.216.465.393-.187.672-.877 3.346-1.169 4.475l.08.038c1.142-1.255 2.111-1.572 2.602-1.585.319.05.756.304.942.685.08.139.093.278.093.443 0 .52-.371 1.99-.955 3.6-.027.05-.014.103.052.103.147 0 .465-.064.837-.153.053.24.08.481.093.735-.545.165-1.407.266-2.044.266-.08 0-.386-.253-.439-.457.213-.659.598-1.862.744-2.407.092-.305.279-.99.279-1.268 0-.19-.12-.368-.346-.368-.73 0-2.03 1.344-2.243 2.091-.132.496-.465 1.8-.584 2.283-.465.012-.903.012-1.367.012.292-1.166 1.486-6.21 1.858-7.834l-1.128.076zM365.212 43c.56 0 .788.416.788.734 0 .477-.418.832-.85.832-.509 0-.84-.38-.84-.771 0-.403.369-.795.89-.795h.012zm-2.199 3.572c-.013-.245-.013-.49-.013-.722.992-.122 1.92-.318 2.073-.318.088 0 .369.245.444.392-.267 1.125-.864 3.645-1.003 4.182-.014.05 0 .086.05.086.153 0 .495-.06.89-.17.038.244.076.476.102.709-.547.158-1.182.269-1.92.269-.09 0-.432-.269-.509-.452.28-1.212.661-2.813.929-4l-1.043.024zM367.451 43.09c-.012-.266-.024-.507-.024-.748 1.244-.126 2.012-.342 2.147-.342.084 0 .34.216.426.38-.402 1.762-1.403 6.502-1.658 7.682-.013.051 0 .09.048.09.16 0 .573-.064.988-.166.05.253.073.494.086.748-.635.177-1.33.266-1.99.266-.06 0-.353-.241-.474-.443.28-1.293 1.232-5.844 1.573-7.505l-1.122.038zM371.943 49.98c.628 0 2.011-1.3 2.22-1.879.085-.265.266-1.059.364-1.487-.251-.266-.643-.403-1.006-.403-.671 0-1.215.693-1.522 1.385-.267.592-.49 1.374-.49 1.854 0 .366.196.53.42.53h.014zm1.97-.544c-1.049 1.047-2.027 1.55-2.64 1.564-.337-.038-.867-.328-1.12-.731-.11-.163-.153-.379-.153-.567 0-.467.168-1.236.434-1.879.419-1.02 1.41-2.508 2.863-2.508.587 0 1.063.189 1.369.415h.084c.196-.806.447-1.89.63-2.684l-1.216.025c-.015-.252-.015-.504-.015-.743 1.454-.139 2.222-.328 2.362-.328.098 0 .377.214.489.39-.21.833-1.635 6.644-1.872 7.614-.015.05.028.076.07.076.111 0 .405-.05.824-.163.055.238.098.478.126.73-.684.202-1.355.302-1.942.302-.07 0-.363-.176-.447-.34.027-.189.125-.617.251-1.134l-.097-.039zM377.027 47.178c-.014-.273-.027-.534-.027-.809 1.064-.15 1.873-.369 1.967-.369.081 0 .378.246.459.398-.067.328-.19.89-.35 1.602l.12.04c.85-1.3 1.564-2.04 2.063-2.04.323 0 .606.124.741.206 0 .493-.35 1.355-.526 1.48-.108-.042-.484-.152-.66-.152-.54 0-1.711 1.37-1.982 2.411-.107.452-.336 1.494-.47 2.042-.446.013-.903.013-1.362.013.242-1.123.754-3.48 1.037-4.905l-1.01.083zM386.026 46.803c-.296 0-.552.161-.783.456-.218.267-.423.656-.59 1.339.59.014 1.168-.067 1.577-.28.258-.135.437-.323.437-.67 0-.401-.206-.845-.629-.845h-.012zM383 50.246c0-.898.41-2.264 1.294-3.215.73-.776 1.436-1.031 2.116-1.031 1.051 0 1.564.818 1.59 1.526-.077.496-.359 1.086-.718 1.314-.68.362-1.577.508-2.744.508-.077.242-.116.59-.116.778 0 .562.308.91.834.91.488 0 1.295-.228 2.04-.616.088.228.165.47.216.71-.768.469-1.768.87-2.833.87-.795 0-1.679-.615-1.679-1.74v-.014zM389.054 47.192c-.014-.282-.014-.535-.014-.804.928-.146 1.841-.388 1.96-.388.08 0 .37.202.464.375-.066.322-.173.803-.292 1.3l.12.04c1.02-1.233 2.053-1.701 2.623-1.715.357.054.74.321.953.737.066.134.093.32.093.455 0 .562-.385 2.075-.966 3.817-.014.054 0 .095.052.095.145 0 .503-.068.873-.162.04.241.067.509.08.764-.543.174-1.218.294-2.027.294-.091 0-.37-.228-.463-.468.213-.696.596-2.01.742-2.558.08-.336.264-1.018.264-1.34 0-.214-.105-.388-.33-.388-.742 0-2.04 1.406-2.251 2.223-.133.496-.464 1.874-.583 2.398-.45.013-.9.013-1.352.013.278-1.22.782-3.47 1.06-4.769l-1.006.08zM397.038 50c.718 0 .962.527.962.96 0 .606-.458 1.04-1.038 1.04-.565 0-.962-.404-.962-.96 0-.513.397-1.04 1.022-1.04h.016zM81 30.149c-.348 2.394-1.914 3.848-4.289 3.851-3.252.006-4.707-3.06-4.711-5.994-.004-2.932 1.443-6.002 4.695-6.006 2.345-.004 3.916 1.37 4.3 3.84l-2.169.302c-.221-1.212-.75-2.303-2.128-2.302-1.963.003-2.355 2.667-2.354 4.164.002 1.496.402 4.158 2.366 4.157 1.363-.002 1.903-1.096 2.122-2.294L81 30.15zM87.515 23.895h-.055l-1.13 4.608 2.326-.004-1.141-4.604zM92 32.987l-2.202.003-.71-2.754-3.184.005-.702 2.756L83 33l3.003-10.996L88.911 22 92 32.987zM97.309 22.008L100.701 29.248 100.731 29.248 100.72 22.003 102.984 22 103 32.988 100.576 32.991 96.296 24.17 96.267 24.17 96.28 32.997 94.016 33 94 22.012zM109.515 23.895h-.055l-1.13 4.608 2.326-.004-1.141-4.604zM114 32.987l-2.202.003-.71-2.754-3.184.005-.702 2.756L105 33l3.003-10.997 2.908-.003L114 32.987zM118.543 31.13c1.887-.003 3.026-1.107 3.023-3.89-.004-2.304-1.07-3.377-3.292-3.374l-.898.001.011 7.265 1.156-.002zM117.89 22c4.504-.005 6.105 2.367 6.11 5.49.005 3.095-1.742 5.5-5.271 5.506l-3.713.004L115 22.004l2.89-.004zM127.014 33L127 22.003 128.987 22 129 32.997zM135.515 23.894h-.055l-1.13 4.608 2.326-.003-1.141-4.605zM140 32.987l-2.202.003-.71-2.755-3.184.006-.702 2.756L131 33l3.003-10.997 2.908-.003L140 32.987zM145.309 22.007L148.701 29.248 148.731 29.248 148.72 22.003 150.984 22 151 32.988 148.576 32.991 144.296 24.169 144.267 24.169 144.28 32.997 142.016 33 142 22.011zM168 30.149c-.348 2.393-1.914 3.847-4.289 3.851-3.252.005-4.707-3.06-4.711-5.994-.004-2.932 1.443-6.002 4.695-6.006 2.345-.004 3.916 1.37 4.3 3.84l-2.169.301c-.221-1.211-.75-2.302-2.128-2.3-1.963.002-2.355 2.665-2.354 4.162.002 1.496.402 4.16 2.366 4.157 1.363-.002 1.903-1.095 2.122-2.293l2.168.282zM176.723 23.865L172.169 23.871 172.173 26.498 175.949 26.493 175.952 28.358 172.176 28.363 172.179 31.132 176.997 31.125 177 32.99 170.015 33 170 22.01 176.721 22zM183.309 22.008L186.701 29.249 186.731 29.249 186.72 22.003 188.984 22 189 32.988 186.576 32.991 182.296 24.17 182.267 24.17 182.28 32.997 180.016 33 180 22.012zM199 23.865L196.116 23.869 196.128 32.997 193.9 33 193.887 23.872 191.003 23.876 191 22.011 198.997 22zM204.096 26.566c.937 0 2.371.053 2.37-1.317-.002-1.513-1.45-1.383-2.513-1.382l-.798.002.002 2.698h.939zM205.233 22c2.47-.003 3.437 1.804 3.439 3.203.002 1.201-.729 2.319-1.817 2.773L209 32.99l-2.263.002-1.936-4.562-1.641.003.006 4.564-2.152.003L201 22.006l4.233-.006zM218.724 23.865L214.17 23.871 214.173 26.499 217.95 26.494 217.953 28.358 214.176 28.364 214.179 31.133 218.997 31.126 219 32.991 212.015 33 212 22.01 218.722 22zM231.987 24c.405 0 .824.112 1.013.196-.016.324-.467 1.058-.778 1.213-.155-.07-.746-.31-1.198-.308-.249 0-.591.113-.855.395-.358.41-.48 1.016-.728 2.143.731-.015 1.494-.016 2.147-.03-.046.295-.14.662-.247.944l-2.1.002c-.495 2.284-1.068 4.793-1.67 7.415-.514.03-1.027.03-1.571.03.57-2.636 1.127-5.103 1.622-7.428l-1.213.001c.061-.282.139-.592.2-.874.39-.014.793-.043 1.151-.058.047 0 .093-.042.11-.098.278-1.34.51-1.917 1.35-2.566.932-.75 1.834-.976 2.75-.977h.017zM234.533 33.127c.383 0 .765-.22 1.03-.625.41-.594.805-2.089.803-3.305 0-.421-.059-.717-.177-.934-.119-.22-.324-.39-.648-.39-.383 0-.735.189-1.059.64-.382.515-.835 1.871-.834 3.182 0 .435.045.764.178 1.028.133.233.384.405.691.404h.016zM238 29.475c.003 1.45-.628 2.822-1.568 3.727-.558.516-1.236.797-2.221.798-.943.001-1.473-.419-1.767-.793-.206-.264-.443-.84-.444-1.463-.003-1.606.629-2.978 1.495-3.805.691-.656 1.428-.938 2.31-.939.824-.001 1.324.31 1.663.746.25.296.531.903.532 1.714v.015zM240.028 28.183c-.015-.274-.027-.534-.028-.808 1.064-.151 1.874-.372 1.968-.372.08 0 .377.246.458.397-.067.328-.187.89-.348 1.601l.12.041c.848-1.301 1.562-2.041 2.06-2.042.324 0 .607.122.742.204 0 .493-.349 1.356-.523 1.48-.108-.042-.486-.15-.661-.15-.54 0-1.71 1.37-1.978 2.41-.107.452-.336 1.492-.47 2.04-.444.014-.902.015-1.36.016.241-1.122.75-3.478 1.032-4.9l-1.012.083zM259 30.148c-.349 2.395-1.914 3.848-4.289 3.852-3.253.004-4.707-3.062-4.711-5.994-.005-2.932 1.443-6.002 4.695-6.006 2.345-.004 3.915 1.37 4.3 3.84l-2.17.3c-.22-1.21-.75-2.302-2.127-2.3-1.963.003-2.355 2.666-2.354 4.162.002 1.497.402 4.16 2.365 4.157 1.363-.002 1.903-1.095 2.122-2.292l2.169.28zM267.801 26.297L267.795 22.003 269.984 22 270 32.989 267.811 32.991 267.804 28.161 264.198 28.166 264.205 32.997 262.016 33 262 22.011 264.189 22.008 264.195 26.302zM273.014 33L273 22.003 274.987 22 275 32.997zM280.283 31.131L284.997 31.125 285 32.991 278.016 33 278 22.003 280.27 22zM290.543 31.13c1.888-.003 3.026-1.107 3.023-3.891-.004-2.304-1.07-3.377-3.292-3.373h-.898l.011 7.266 1.156-.002zm-.652-9.13c4.503-.006 6.104 2.367 6.109 5.49.005 3.096-1.741 5.501-5.272 5.506l-3.712.004L287 22.003l2.891-.003zM305.71 26.92c1.223-.002 2.991.193 2.99-1.531-.003-1.723-1.772-1.523-2.994-1.521h-.46l.004 3.052h.46zm1.605-4.92c2.602-.003 3.682 1.874 3.685 3.457.002 1.668-1.002 3.322-4.238 3.327l-1.51.002.007 4.211-2.243.003L303 22.006l4.315-.006zM316.095 26.566c.939 0 2.373.053 2.37-1.317-.001-1.513-1.45-1.383-2.511-1.382l-.8.002.003 2.698h.938zm1.14-4.566c2.468-.003 3.435 1.804 3.437 3.203.002 1.201-.728 2.319-1.816 2.773L321 32.99l-2.262.002-1.937-4.562-1.641.003.006 4.564-2.15.003L313 22.006l4.234-.006zM325.243 28.004c.002 1.496.384 4.158 2.262 4.156 1.879-.003 2.254-2.666 2.252-4.163-.002-1.496-.384-4.16-2.263-4.157-1.877.003-2.253 2.667-2.251 4.164m6.757-.01c.003 2.932-1.38 6.002-4.493 6.006-3.111.005-4.504-3.06-4.507-5.994-.004-2.932 1.38-6.001 4.493-6.006 3.111-.005 4.503 3.06 4.507 5.994M341 23.865L338.116 23.869 338.128 32.997 335.9 33 335.887 23.872 333.003 23.876 333 22.011 340.997 22zM349.724 23.865L345.17 23.871 345.173 26.498 348.949 26.493 348.952 28.358 345.176 28.363 345.179 31.133 349.997 31.126 350 32.99 343.015 33 343 22.01 349.722 22zM361 30.149c-.349 2.394-1.914 3.848-4.289 3.851-3.253.005-4.707-3.06-4.711-5.994-.005-2.932 1.443-6.001 4.695-6.006 2.345-.004 3.915 1.37 4.3 3.84l-2.17.302c-.22-1.212-.75-2.303-2.127-2.302-1.963.003-2.355 2.667-2.354 4.164.002 1.496.402 4.16 2.365 4.156 1.363-.002 1.903-1.095 2.122-2.293l2.169.282zM371 23.865L368.116 23.869 368.128 32.997 365.9 33 365.887 23.872 363.003 23.876 363 22.01 370.997 22zM373.014 33L373 22.003 374.987 22 375 32.997zM380.243 28.003c.002 1.496.384 4.16 2.262 4.156 1.879-.003 2.254-2.666 2.252-4.162-.002-1.496-.384-4.16-2.263-4.157-1.877.003-2.253 2.667-2.251 4.163m6.757-.01c.003 2.933-1.38 6.002-4.493 6.007-3.111.004-4.504-3.06-4.507-5.994-.004-2.932 1.38-6.001 4.493-6.006 3.111-.005 4.503 3.06 4.507 5.993M392.309 22.008L395.702 29.247 395.731 29.247 395.721 22.003 397.985 22 398 32.988 395.576 32.99 391.296 24.17 391.268 24.17 391.28 32.997 389.015 33 389 22.012z" transform="translate(-80 -2617) translate(-1 2569) translate(81 48)"/>
                    <g transform="translate(-80 -2617) translate(-1 2569) translate(81 48) translate(402 21)">
                        <mask id="6itc0g5p1d" fill="#fff">
                            <use xlink:href="#dpivmb4vfc"/>
                        </mask>
                        <path fill="#FEFEFE" d="M1.854 2.192h.442c.455 0 .603-.13.603-.398 0-.232-.114-.363-.54-.363h-.505v.761zm0 1.362h-.375v-2.43h.932c.578 0 .862.216.862.693 0 .438-.272.624-.637.67l.694 1.067H2.92L2.274 2.5h-.42v1.055zm.448-2.98c-.976 0-1.731.755-1.731 1.76 0 1.027.755 1.77 1.731 1.77.965 0 1.721-.743 1.721-1.77 0-1.005-.756-1.76-1.72-1.76zm0-.34c1.147 0 2.13.89 2.13 2.1 0 1.22-.983 2.112-2.13 2.112-1.158 0-2.14-.891-2.14-2.112 0-1.21.982-2.1 2.14-2.1z" mask="url(#6itc0g5p1d)"/>
                    </g>
                </g>
            </g>
        </g>
    </g>
</svg>
