<svg id="Layer_1" data-name="Layer 1" xmlns="http://www.w3.org/2000/svg" viewBox="0 0 63.5 63.94"><path d="M61,32a5.87,5.87,0,0,0,2.8-4.92,6.28,6.28,0,0,0-6.52-6H39.85a14.81,14.81,0,0,0,1.46-7.82c-.37-7.7-5.05-11.7-7.75-12.85a4.7,4.7,0,0,0-4.64.43C27.6,1.82,26.12,4,26.52,9c.41,5.19-6.2,10.82-9.42,13.24v-2A1.11,1.11,0,0,0,16,19.15H1.36A1.11,1.11,0,0,0,.25,20.26V60.18a1.11,1.11,0,0,0,1.11,1.11H16a1.11,1.11,0,0,0,1.11-1.11v-2c4.17,1.5,15.88,5.53,21.67,5.72L50.39,64a6.39,6.39,0,0,0,6.51-6.25,6.09,6.09,0,0,0-1.64-4.14,6.34,6.34,0,0,0,5.48-6.16A6.08,6.08,0,0,0,59,43.14a6.31,6.31,0,0,0,4.78-6A6.15,6.15,0,0,0,61,32ZM2.47,59.07V21.37H14.89V59.08ZM57.22,41.18H50.39a1.11,1.11,0,0,0,0,2.22h3.83a4,4,0,1,1,0,8.08H46.33a1.11,1.11,0,0,0,0,2.22H50.4a4.05,4.05,0,1,1,0,8.09L38.8,61.71C33,61.52,20.26,57,17.09,55.85V25c2.39-1.65,12.2-8.86,11.62-16.15-.25-3.1.28-5.28,1.49-6.16a2.6,2.6,0,0,1,2.48-.19c2.23.95,6.09,4.31,6.41,10.92.29,5.74-2,7.89-2.12,8a1.1,1.1,0,0,0,.72,1.94H57.22a4.07,4.07,0,0,1,4.31,3.77,4.08,4.08,0,0,1-4.31,3.79H52.5a1.11,1.11,0,0,0,0,2.22h4.72a4.06,4.06,0,1,1,0,8.1Z" transform="translate(-0.25 -0.02)"/></svg>