<?xml version="1.0" encoding="utf-8"?>
<!-- Generator: Adobe Illustrator 25.2.0, SVG Export Plug-In . SVG Version: 6.00 Build 0)  -->
<svg version="1.1" id="Layer_1" xmlns="http://www.w3.org/2000/svg" xmlns:xlink="http://www.w3.org/1999/xlink" x="0px" y="0px"
	 viewBox="0 0 24 24" style="enable-background:new 0 0 24 24;" xml:space="preserve">
<style type="text/css">
	.st0{opacity:0.804;}
	.st1{fill-rule:evenodd;clip-rule:evenodd;fill:#FFFFFF;}
</style>
<g class="st0">
	<g>
		<g>
			<g>
				<g>
					<path class="st1" d="M24,4.4c-0.9,0.4-1.8,0.7-2.8,0.8c1-0.6,1.8-1.6,2.2-2.8c-1,0.6-2,1-3.1,1.2c-0.9-1-2.2-1.6-3.6-1.6
						c-2.7,0-4.9,2.3-4.9,5c0,0.4,0,0.8,0.1,1.1C7.8,8,4.1,6,1.7,3C1.3,3.7,1,4.6,1,5.5c0,1.7,0.9,3.3,2.2,4.2
						C2.4,9.7,1.7,9.5,1,9.1v0.1c0,2.4,1.7,4.5,3.9,4.9c-0.4,0.1-0.8,0.2-1.3,0.2c-0.3,0-0.6,0-0.9-0.1c0.6,2,2.4,3.5,4.6,3.5
						c-1.7,1.4-3.8,2.2-6.1,2.2c-0.4,0-0.8,0-1.2-0.1C2.2,21.2,4.8,22,7.6,22c9,0,14-7.7,14-14.3c0-0.2,0-0.4,0-0.7
						C22.5,6.3,23.3,5.4,24,4.4"/>
				</g>
			</g>
		</g>
	</g>
</g>
</svg>
