<svg id="Layer_1" data-name="Layer 1" xmlns="http://www.w3.org/2000/svg" viewBox="0 0 126.67 93.6"><path d="M109.5,25.4c-.6-2.7-2.9-12.1-6.5-15.7l-.3-.3C98.8,5.5,94.4,1.1,83.5.1A19.27,19.27,0,0,0,81.1,0c-10,0-15.6,5.9-19.7,11.7-2.1,2.9-3.5,7-5,11.4s-3,8.8-5.3,11.8c-4.7,6.4-13.2,7.6-17.9,7.8h-.9a41.38,41.38,0,0,1-18.6-5.1c-5-2.7-10.3-9.2-10.4-9.3L1,25.6.6,29.1c0,.5-1.2,11.1-.6,18.7C.9,59.2,6.8,71.3,15.2,79.4,25.1,88.9,39,93.6,57.5,93.6c27.9,0,40.4-20.1,45.1-27.7,5.1-8.2,6.2-18,6.4-20.9l17.5-11.1Zm-3.3,18v.8c0,.1-.5,11.3-6,20.2-4.5,7.2-16.3,26.3-42.5,26.3-17.7,0-30.8-4.4-40.2-13.4C9.6,69.8,4,58.1,3.2,47.6a100.26,100.26,0,0,1,.3-14.7,44.3,44.3,0,0,0,8.9,7.4c6.3,3.4,13.8,5.5,20,5.5h1c5.2-.2,14.8-1.6,20.2-9,2.5-3.4,4.1-8.1,5.7-12.6,1.4-4.1,2.8-8,4.6-10.6C67.7,8,72.5,3,81.1,3a17,17,0,0,1,2.2.1c9.7.9,13.6,4.7,17.3,8.4l.3.3c2.9,2.9,5.2,11.7,5.8,14.9l.1.7,13.7,6.8Z" transform="translate(0.17)"/><path d="M72.4,42.7,14,58.7l.7,1.6c.3.6,7.1,14.9,27.4,14.9h0c1.1,0,2.3,0,3.5-.1,9.1-.7,16.1-3.9,20.8-9.6,7.4-8.9,6.1-20.6,6.1-21.1ZM64.2,63.6c-4.1,5-10.4,7.8-18.7,8.5-1.1.1-2.2.1-3.3.1h0c-14.7,0-21.5-8.1-23.8-11.6L69.7,46.5C69.8,50,69.2,57.6,64.2,63.6Z" transform="translate(0.17)"/><path d="M89.6,14.7a8.9,8.9,0,1,0,8.9,8.9A8.92,8.92,0,0,0,89.6,14.7Zm0,14.7a5.91,5.91,0,0,1-5.9-5.9,5.9,5.9,0,1,1,5.9,5.9Z" transform="translate(0.17)"/></svg>