<?xml version="1.0" encoding="utf-8"?>
<!-- Generator: Adobe Illustrator 25.2.0, SVG Export Plug-In . SVG Version: 6.00 Build 0)  -->
<svg version="1.1" id="Layer_1" xmlns="http://www.w3.org/2000/svg" xmlns:xlink="http://www.w3.org/1999/xlink" x="0px" y="0px"
	 viewBox="0 0 24 24" style="enable-background:new 0 0 24 24;" xml:space="preserve">
<style type="text/css">
	.st0{opacity:0.804;}
	.st1{fill-rule:evenodd;clip-rule:evenodd;fill:#FFFFFF;}
</style>
<g class="st0">
	<g>
		<g>
			<g>
				<g>
					<path class="st1" d="M9.5,15V8.2l6.5,3.4C16,11.6,9.5,15,9.5,15z M23.8,7c0,0-0.2-1.7-1-2.4c-0.9-1-1.9-1-2.4-1
						C17,3.4,12,3.4,12,3.4h0c0,0-5,0-8.4,0.2c-0.5,0.1-1.5,0.1-2.4,1C0.5,5.4,0.2,7,0.2,7S0,9,0,10.9v1.8c0,2,0.2,3.9,0.2,3.9
						s0.2,1.7,1,2.4c0.9,1,2.1,0.9,2.6,1c1.9,0.2,8.2,0.2,8.2,0.2s5,0,8.4-0.3c0.5-0.1,1.5-0.1,2.4-1c0.7-0.7,1-2.4,1-2.4
						s0.2-2,0.2-3.9v-1.8C24,9,23.8,7,23.8,7z"/>
				</g>
			</g>
		</g>
	</g>
</g>
</svg>
